<svg xmlns="http://www.w3.org/2000/svg" viewBox="0 0 300 420"><defs><linearGradient id="p" x1="0" y1="0" x2="1" y2="1"><stop stop-color="#f7c6df"/><stop offset="1" stop-color="#d88bc5"/></linearGradient></defs><ellipse cx="150" cy="398" rx="75" ry="12" fill="#5a8d61" opacity=".2"/><path d="M96 150C70 90 74 18 108 22c27 3 26 73 18 128Z" fill="url(#p)" stroke="#874e7d" stroke-width="7"/><path d="M204 150c26-60 22-132-12-128-27 3-26 73-18 128Z" fill="url(#p)" stroke="#874e7d" stroke-width="7"/><path d="M102 126c-13-47-12-82 3-83 12-1 15 38 9 79Z" fill="#f8dce9"/><path d="M198 126c13-47 12-82-3-83-12-1-15 38-9 79Z" fill="#f8dce9"/><ellipse cx="150" cy="224" rx="96" ry="126" fill="url(#p)" stroke="#874e7d" stroke-width="7"/><ellipse cx="117" cy="214" rx="14" ry="20" fill="#fff"/><ellipse cx="183" cy="214" rx="14" ry="20" fill="#fff"/><circle cx="119" cy="217" r="7" fill="#342b3b"/><circle cx="181" cy="217" r="7" fill="#342b3b"/><circle cx="121" cy="214" r="2.5" fill="#fff"/><circle cx="183" cy="214" r="2.5" fill="#fff"/><ellipse cx="150" cy="247" rx="10" ry="8" fill="#633f62"/><path d="M132 266q18 15 36 0" fill="none" stroke="#874e7d" stroke-width="6" stroke-linecap="round"/><ellipse cx="150" cy="300" rx="55" ry="43" fill="#f9e9f2"/><path d="M103 321q-35 45-12 65M197 321q35 45 12 65" fill="none" stroke="#d88bc5" stroke-width="26" stroke-linecap="round"/><circle cx="91" cy="386" r="13" fill="#f9e9f2"/><circle cx="209" cy="386" r="13" fill="#f9e9f2"/></svg>
